# xmcd CD database file
#
# Track frame offsets:
#	150
#	31012
#	65010
#	97087
#	120425
#	149304
#	185460
#	207218
#	239145
#
# Disc length: 3436 seconds
#
# Revision: 1
# Processed by: cddbd v1.5.2PL0 Copyright (c) Steve Scherf et al.
# Submitted via: CDex 1.70beta2
#
DISCID=810d6a09
DTITLE=Passport - Klaus Doldingers Passport on Stage - CD 1
DYEAR=2006
DGENRE=Jazz
TTITLE0=Ataraxia
TTITLE1=The Cat from Katmandu
TTITLE2=Riyad El Cadi
TTITLE3=Yellow Dream
TTITLE4=Samba Cinema
TTITLE5=After Hours
TTITLE6=Bellydance
TTITLE7=Will-O` The-Wisp
TTITLE8=Soul Town
EXTD=YEAR: 2006
EXTT0=
EXTT1=
EXTT2=
EXTT3=
EXTT4=
EXTT5=
EXTT6=
EXTT7=
EXTT8=
PLAYORDER=
